<?xml version="1.0" encoding="UTF-8"?>
<svg id="Camada_2" data-name="Camada 2" xmlns="http://www.w3.org/2000/svg" xmlns:xlink="http://www.w3.org/1999/xlink" viewBox="0 0 1216.14 212.03">
  <defs>
    <style>
      .cls-1 {
        fill: url(#Unnamed_Pattern_5);
      }

      .cls-2 {
        letter-spacing: .3em;
      }

      .cls-3 {
        fill: #4d4d4d;
      }

      .cls-4 {
        fill: #cb6600;
      }

      .cls-5 {
        letter-spacing: .29em;
      }

      .cls-6 {
        fill: none;
      }

      .cls-7 {
        letter-spacing: .3em;
      }

      .cls-8 {
        fill: #707070;
        font-family: Montserrat-Medium, 'Montserrat Medium';
        font-size: 57.12px;
        font-weight: 500;
      }
    </style>
    <pattern id="Unnamed_Pattern_5" data-name="Unnamed Pattern 5" x="0" y="0" width="32.65" height="32.65" patternTransform="translate(-331.86 -805)" patternUnits="userSpaceOnUse" viewBox="0 0 32.65 32.65">
      <g>
        <rect class="cls-6" y="0" width="32.65" height="32.65"/>
        <rect class="cls-4" x="0" y="0" width="32.65" height="32.65"/>
      </g>
    </pattern>
  </defs>
  <g id="Camada_1-2" data-name="Camada 1">
    <g>
      <g>
        <path class="cls-3" d="M29.1,69.29V15.61c0-.26,.21-.47,.47-.47h16.05c4.18,0,7.57-3.39,7.57-7.57s-3.39-7.57-7.57-7.57H29.57c-8.6,0-15.6,7-15.6,15.61v53.68c0,.95-.38,1.87-1.06,2.55l-10.69,10.69c-2.96,2.96-2.96,7.74,0,10.7l10.69,10.7c.67,.67,1.05,1.6,1.05,2.54v53.68c0,8.61,7,15.61,15.6,15.61h16.05c4.18,0,7.57-3.39,7.57-7.57s-3.39-7.57-7.57-7.57H29.57c-.26,0-.47-.21-.47-.47v-53.68c0-4.94-2-9.76-5.49-13.25l-5.34-5.34,5.34-5.34c3.49-3.49,5.49-8.32,5.49-13.25Z"/>
        <path class="cls-3" d="M259.74,82.53l-10.69-10.7c-.67-.67-1.05-1.6-1.05-2.54V15.61c0-8.61-7-15.61-15.6-15.61h-16.06c-4.18,0-7.57,3.39-7.57,7.57s3.39,7.57,7.57,7.57h16.06c.26,0,.47,.21,.47,.47v53.68c0,4.94,2,9.76,5.49,13.25l5.34,5.34-5.34,5.34c-3.49,3.49-5.49,8.32-5.49,13.25v53.68c0,.26-.21,.47-.47,.47h-16.06c-4.18,0-7.57,3.39-7.57,7.57s3.39,7.57,7.57,7.57h16.06c8.6,0,15.6-7,15.6-15.61v-53.68c0-.95,.38-1.87,1.06-2.55l10.69-10.7c2.95-2.96,2.95-7.74,0-10.7Z"/>
        <path class="cls-4" d="M189.31,196.9h-20.52v-21.14h19.11c4.18,0,7.57-3.39,7.57-7.57s-3.39-7.57-7.57-7.57H74.06c-4.18,0-7.57,3.39-7.57,7.57s3.39,7.57,7.57,7.57h19.11v21.14h-20.52c-4.18,0-7.57,3.39-7.57,7.57s3.39,7.57,7.57,7.57h116.66c4.18,0,7.57-3.39,7.57-7.57s-3.39-7.57-7.57-7.57Zm-81.01,0v-21.14h45.36v21.14h-45.36Z"/>
        <path class="cls-4" d="M74.06,15.13h113.84c4.18,0,7.57-3.39,7.57-7.57s-3.39-7.57-7.57-7.57H74.06c-4.18,0-7.57,3.39-7.57,7.57s3.39,7.57,7.57,7.57Z"/>
        <g>
          <path class="cls-1" d="M58,73.27h-17.93v-16h56.49v16h-17.93v45.21h-20.64v-45.21Z"/>
          <path class="cls-1" d="M101.9,57.27h20.64v61.22h-20.64V57.27Z"/>
          <path class="cls-1" d="M189.88,80.36c0,14.17-10.84,23.09-27.9,23.09h-8.83v15.04h-20.64V57.27h29.47c17.05,0,27.9,8.92,27.9,23.09Zm-20.81,0c0-4.46-2.71-7.17-8.4-7.17h-7.52v14.34h7.52c5.68,0,8.4-2.71,8.4-7.17Z"/>
          <path class="cls-1" d="M196.62,57.27h20.64v61.22h-20.64V57.27Z"/>
        </g>
      </g>
      <g>
        <g>
          <path class="cls-1" d="M376.91,97.83h-35.77l-6.32,16.41h-32.28l41.15-94.14h31.2l41.15,94.14h-32.82l-6.32-16.41Zm-8.74-22.86l-9.15-23.67-9.15,23.67h18.29Z"/>
          <path class="cls-1" d="M469.58,73.35h26.76v32.95c-10.09,6.46-24.07,9.95-34.56,9.95-28.24,0-46.4-17.35-46.4-41.15s19.37-41.15,47.07-41.15c16.54,0,28.51,5.51,36.58,15.87l-20.31,16.81c-4.57-5.78-9.95-8.47-16.27-8.47-9.41,0-15.87,6.19-15.87,16.95s5.78,16.95,15.74,16.95c2.56,0,4.98-.27,7.26-1.08v-17.62Z"/>
          <path class="cls-1" d="M577.17,92.04v22.19h-68.32V35.96h66.84v22.19h-36.45v6.05h31.87v20.71h-31.87v7.13h37.93Zm-46.13-64.15h-18.83l17.21-21.52h25.82l17.21,21.52h-18.83l-11.3-10.36-11.3,10.36Z"/>
          <path class="cls-1" d="M669.16,35.96V114.23h-25.42l-25.69-29.72v29.72h-30.13V35.96h25.42l25.69,29.99v-29.99h30.13Z"/>
          <path class="cls-1" d="M679.52,75.1c0-24.07,19.37-41.15,45.32-41.15,15.87,0,27.97,4.44,36.85,16.54l-19.77,16.81c-4.71-6.19-9.82-9.15-15.87-9.15-8.88,0-15.33,6.19-15.33,16.95s6.46,16.95,15.33,16.95c6.05,0,11.16-2.96,15.87-9.15l19.77,16.81c-8.88,12.1-20.98,16.54-36.85,16.54-25.96,0-45.32-17.08-45.32-41.15Z"/>
          <path class="cls-1" d="M770.3,35.96h30.93V114.23h-30.93V35.96Z"/>
          <path class="cls-1" d="M870.63,102.13h-30.39l-4.71,12.1h-29.59l34.43-78.27h30.39l34.43,78.27h-29.99l-4.57-12.1Zm-7.93-20.71l-7.13-18.43-7.26,18.43h14.39Z"/>
          <path class="cls-3" d="M971.23,44.7h-27.57V20.09h86.88v24.61h-27.57V114.23h-31.74V44.7Z"/>
          <path class="cls-3" d="M1038.75,20.09h31.74V114.23h-31.74V20.09Z"/>
          <path class="cls-3" d="M1174.04,55.6c0,21.79-16.68,35.51-42.9,35.51h-13.58v23.13h-31.74V20.09h45.32c26.22,0,42.9,13.72,42.9,35.51Zm-32.01,0c0-6.86-4.17-11.03-12.91-11.03h-11.57v22.06h11.57c8.74,0,12.91-4.17,12.91-11.03Z"/>
          <path class="cls-3" d="M1184.4,20.09h31.74V114.23h-31.74V20.09Z"/>
        </g>
        <text class="cls-8" transform="translate(435.88 190.64)"><tspan class="cls-2" x="0" y="0">SEN</tspan><tspan class="cls-5" x="145.27" y="0">A</tspan><tspan class="cls-7" x="196.51" y="0">C SMP 2023</tspan></text>
      </g>
    </g>
  </g>
</svg>