<?xml version="1.0" encoding="UTF-8"?>
<svg id="Camada_2" data-name="Camada 2" xmlns="http://www.w3.org/2000/svg" xmlns:xlink="http://www.w3.org/1999/xlink" viewBox="0 0 484.88 343.61">
  <defs>
    <style>
      .cls-1 {
        fill: url(#Unnamed_Pattern_5);
      }

      .cls-2 {
        fill: #4d4d4d;
      }

      .cls-3 {
        letter-spacing: .28em;
      }

      .cls-4 {
        fill: #cb6600;
      }

      .cls-5 {
        letter-spacing: .3em;
      }

      .cls-6 {
        fill: #707070;
        font-family: Montserrat-Medium, 'Montserrat Medium';
        font-size: 30.32px;
        font-weight: 500;
      }

      .cls-7 {
        fill: none;
      }

      .cls-8 {
        letter-spacing: .3em;
      }
    </style>
    <pattern id="Unnamed_Pattern_5" data-name="Unnamed Pattern 5" x="0" y="0" width="32.65" height="32.65" patternTransform="translate(-204.4 -217)" patternUnits="userSpaceOnUse" viewBox="0 0 32.65 32.65">
      <g>
        <rect class="cls-7" y="0" width="32.65" height="32.65"/>
        <rect class="cls-4" x="0" y="0" width="32.65" height="32.65"/>
      </g>
    </pattern>
  </defs>
  <g id="Camada_1-2" data-name="Camada 1">
    <g>
      <g>
        <path class="cls-2" d="M140.56,69.29V15.61c0-.26,.21-.47,.47-.47h16.05c4.18,0,7.57-3.39,7.57-7.57s-3.39-7.57-7.57-7.57h-16.05c-8.6,0-15.6,7-15.6,15.61v53.68c0,.95-.38,1.87-1.06,2.55l-10.69,10.69c-2.96,2.96-2.96,7.74,0,10.7l10.69,10.7c.67,.67,1.05,1.6,1.05,2.54v53.68c0,8.61,7,15.61,15.6,15.61h16.05c4.18,0,7.57-3.39,7.57-7.57s-3.39-7.57-7.57-7.57h-16.05c-.26,0-.47-.21-.47-.47v-53.68c0-4.94-2-9.76-5.49-13.25l-5.34-5.34,5.34-5.34c3.49-3.49,5.49-8.32,5.49-13.25Z"/>
        <path class="cls-2" d="M371.21,82.53l-10.69-10.7c-.67-.67-1.05-1.6-1.05-2.54V15.61c0-8.61-7-15.61-15.6-15.61h-16.06c-4.18,0-7.57,3.39-7.57,7.57s3.39,7.57,7.57,7.57h16.06c.26,0,.47,.21,.47,.47v53.68c0,4.94,2,9.76,5.49,13.25l5.34,5.34-5.34,5.34c-3.49,3.49-5.49,8.32-5.49,13.25v53.68c0,.26-.21,.47-.47,.47h-16.06c-4.18,0-7.57,3.39-7.57,7.57s3.39,7.57,7.57,7.57h16.06c8.6,0,15.6-7,15.6-15.61v-53.68c0-.95,.38-1.87,1.06-2.55l10.69-10.7c2.95-2.96,2.95-7.74,0-10.7Z"/>
        <path class="cls-4" d="M300.77,196.9h-20.52v-21.14h19.11c4.18,0,7.57-3.39,7.57-7.57s-3.39-7.57-7.57-7.57h-113.84c-4.18,0-7.57,3.39-7.57,7.57s3.39,7.57,7.57,7.57h19.11v21.14h-20.52c-4.18,0-7.57,3.39-7.57,7.57s3.39,7.57,7.57,7.57h116.66c4.18,0,7.57-3.39,7.57-7.57s-3.39-7.57-7.57-7.57Zm-81.01,0v-21.14h45.36v21.14h-45.36Z"/>
        <path class="cls-4" d="M185.52,15.13h113.84c4.18,0,7.57-3.39,7.57-7.57s-3.39-7.57-7.57-7.57h-113.84c-4.18,0-7.57,3.39-7.57,7.57s3.39,7.57,7.57,7.57Z"/>
        <g>
          <path class="cls-1" d="M169.46,73.27h-17.93v-16h56.49v16h-17.93v45.21h-20.64v-45.21Z"/>
          <path class="cls-1" d="M213.36,57.27h20.64v61.22h-20.64V57.27Z"/>
          <path class="cls-1" d="M301.34,80.36c0,14.17-10.84,23.09-27.9,23.09h-8.83v15.04h-20.64V57.27h29.47c17.05,0,27.9,8.92,27.9,23.09Zm-20.81,0c0-4.46-2.71-7.17-8.4-7.17h-7.52v14.34h7.52c5.68,0,8.4-2.71,8.4-7.17Z"/>
          <path class="cls-1" d="M308.08,57.27h20.64v61.22h-20.64V57.27Z"/>
        </g>
      </g>
      <g>
        <g>
          <path class="cls-1" d="M39.47,286.77H20.49l-3.35,8.71H0l21.84-49.97h16.56l21.84,49.97h-17.42l-3.35-8.71Zm-4.64-12.13l-4.85-12.56-4.85,12.56h9.71Z"/>
          <path class="cls-1" d="M88.65,273.78h14.2v17.49c-5.35,3.43-12.78,5.28-18.34,5.28-14.99,0-24.63-9.21-24.63-21.84s10.28-21.84,24.98-21.84c8.78,0,15.13,2.93,19.42,8.42l-10.78,8.92c-2.43-3.07-5.28-4.5-8.64-4.5-5,0-8.42,3.28-8.42,8.99s3.07,8.99,8.35,8.99c1.36,0,2.64-.14,3.85-.57v-9.35Z"/>
          <path class="cls-1" d="M145.76,283.7v11.78h-36.26v-41.54h35.48v11.78h-19.34v3.21h16.92v10.99h-16.92v3.78h20.13Zm-24.48-34.05h-9.99l9.14-11.42h13.7l9.14,11.42h-9.99l-6-5.5-6,5.5Z"/>
          <path class="cls-1" d="M194.58,253.93v41.54h-13.49l-13.63-15.77v15.77h-15.99v-41.54h13.49l13.63,15.92v-15.92h15.99Z"/>
          <path class="cls-1" d="M200.08,274.7c0-12.78,10.28-21.84,24.05-21.84,8.42,0,14.85,2.36,19.56,8.78l-10.49,8.92c-2.5-3.28-5.21-4.85-8.42-4.85-4.71,0-8.14,3.28-8.14,8.99s3.43,8.99,8.14,8.99c3.21,0,5.92-1.57,8.42-4.85l10.49,8.92c-4.71,6.42-11.13,8.78-19.56,8.78-13.78,0-24.05-9.07-24.05-21.84Z"/>
          <path class="cls-1" d="M248.26,253.93h16.42v41.54h-16.42v-41.54Z"/>
          <path class="cls-1" d="M301.51,289.05h-16.13l-2.5,6.42h-15.7l18.27-41.54h16.13l18.27,41.54h-15.92l-2.43-6.42Zm-4.21-10.99l-3.78-9.78-3.85,9.78h7.64Z"/>
          <path class="cls-2" d="M354.9,258.57h-14.63v-13.06h46.11v13.06h-14.63v36.9h-16.85v-36.9Z"/>
          <path class="cls-2" d="M390.73,245.51h16.85v49.97h-16.85v-49.97Z"/>
          <path class="cls-2" d="M462.54,264.35c0,11.56-8.85,18.84-22.77,18.84h-7.21v12.28h-16.85v-49.97h24.06c13.92,0,22.77,7.28,22.77,18.84Zm-16.99,0c0-3.64-2.21-5.85-6.85-5.85h-6.14v11.71h6.14c4.64,0,6.85-2.21,6.85-5.85Z"/>
          <path class="cls-2" d="M468.04,245.51h16.85v49.97h-16.85v-49.97Z"/>
        </g>
        <text class="cls-6" transform="translate(70.77 336.03)"><tspan class="cls-5" x="0" y="0">SEN</tspan><tspan class="cls-3" x="77.1" y="0">A</tspan><tspan class="cls-8" x="104.29" y="0">C SMP 2023</tspan></text>
      </g>
    </g>
  </g>
</svg>